<?xml version="1.0" encoding="iso-8859-1"?>
<!-- Generator: Adobe Illustrator 18.1.1, SVG Export Plug-In . SVG Version: 6.00 Build 0)  -->
<svg xmlns="http://www.w3.org/2000/svg" xmlns:xlink="http://www.w3.org/1999/xlink" version="1.1" id="Capa_1" x="0px" y="0px" viewBox="0 0 48.027 48.027" style="enable-background:new 0 0 48.027 48.027;" xml:space="preserve" width="512px" height="512px">
<g>
	<path d="M24.013,0C21.779,0,2.189,0.118,2.189,4.191c0,0.315,0.13,0.605,0.348,0.874C2.559,5.101,2.575,5.14,2.603,5.173   l17.679,21.575v14.071c-4.554,0.271-7.143,1.558-7.143,3.578c0,2.866,6.479,3.631,10.309,3.631s10.31-0.765,10.31-3.631   c0-1.94-2.729-3.248-7.351-3.559V26.767L45.121,5.576c0.074-0.084,0.124-0.181,0.161-0.282c0.353-0.331,0.555-0.697,0.555-1.103   C45.838,0.118,26.246,0,24.013,0z M24.013,1.8c11.242,0,18.624,1.363,19.913,2.391c-1.29,1.027-8.672,2.391-19.913,2.391   c-11.239,0-18.621-1.363-19.911-2.391C5.391,3.163,12.772,1.8,24.013,1.8z M24.831,25.831c-0.146,0.165-0.225,0.376-0.225,0.596   v15.266c0,0.483,0.383,0.881,0.865,0.899c4.889,0.188,6.485,1.407,6.488,1.787c-0.161,0.526-2.93,1.85-8.513,1.85   s-8.35-1.323-8.508-1.831c0-0.532,1.532-1.675,6.271-1.817c0.486-0.015,0.873-0.413,0.873-0.899V26.426   c0-0.208-0.072-0.41-0.204-0.57L6.298,6.844c5.871,1.477,16.134,1.538,17.715,1.538c1.566,0,11.654-0.06,17.551-1.497   L24.831,25.831z" fill="#FFFFFF"/>
</g>
<g>
</g>
<g>
</g>
<g>
</g>
<g>
</g>
<g>
</g>
<g>
</g>
<g>
</g>
<g>
</g>
<g>
</g>
<g>
</g>
<g>
</g>
<g>
</g>
<g>
</g>
<g>
</g>
<g>
</g>
</svg>
