<?xml version="1.0" encoding="utf-8"?>
<!-- Generator: Adobe Illustrator 19.0.0, SVG Export Plug-In . SVG Version: 6.00 Build 0)  -->
<svg version="1.1" id="Calque_1" xmlns="http://www.w3.org/2000/svg" xmlns:xlink="http://www.w3.org/1999/xlink" x="0px" y="0px"
	 viewBox="0 0 180 180" style="enable-background:new 0 0 180 180;" xml:space="preserve">
<style type="text/css">
	.st0{fill:#FFFFFF;}
</style>
<g id="XMLID_35_">
	<path id="XMLID_32_" class="st1" d="M87,155.5L87,155.5c-36.2,0-65.6-29.4-65.6-65.6v0c0-36.2,29.4-65.6,65.6-65.6h0
		c36.2,0,65.6,29.4,65.6,65.6v0C152.6,126.2,123.2,155.5,87,155.5z"/>
	<g id="XMLID_25_">
		<path id="XMLID_31_" class="st0" d="M87.6,43.8c0.2,0.1,0.4,0.1,0.6,0.2c1.9,0.6,3.2,2.5,2.9,4.5c-0.3,2.1-2.1,3.6-4.1,3.5
			c-2.2,0-3.9-1.7-4-4c-0.1-2.1,1.4-3.7,3.2-4.1c0.1,0,0.2-0.1,0.4-0.1C86.9,43.8,87.3,43.8,87.6,43.8z"/>
		<path id="XMLID_28_" class="st0" d="M132.1,98.1c-0.3,0-0.5,0-0.7,0c-29.6,0-59.2,0-88.8,0c-0.7,0-0.7,0-0.7-0.7
			c0-0.9,0-1.9,0-2.8c-0.1-1.4,1.1-2.3,2.2-2.2c1.4,0.1,2.7,0,4.1,0c0.3,0,0.5-0.1,0.6-0.5c0.2-2.8,0.7-5.5,1.5-8.2
			c1.9-6.8,5.2-12.8,10.2-17.9c5-5,10.9-8.2,17.7-9.8c3.8-0.9,7.6-1.3,11.4-1c8.6,0.6,16.3,3.6,22.8,9.4c6.1,5.6,10,12.5,11.9,20.5
			c0.5,2.2,0.8,4.4,1.1,6.6c0.1,0.8,0.1,0.8,0.9,0.8c1.3,0,2.5,0,3.8,0c1.2,0,2,0.8,2,2C132.1,95.6,132.1,96.8,132.1,98.1z
			 M79.7,61.5c0,0,0-0.1-0.1-0.1c-6.5,1.7-12,5.1-16.5,10.1c-4.6,5.2-7.4,11.3-8.3,18.3c0.1,0,0.2,0.1,0.3,0.1c2.2,0,4.4,0,6.6,0
			c0.3,0,0.4-0.2,0.4-0.4c0.2-1.4,0.3-2.8,0.6-4.2c2-9.5,7-17,15.1-22.5C78.4,62.3,79.1,61.9,79.7,61.5z"/>
		<path id="XMLID_27_" class="st0" d="M62.7,103.9c0.3,0,0.5,0,0.7,0c11.8,0,23.7,0,35.5,0c0.8,0,1.5,0.2,2.2,0.5
			c1.4,0.6,1.8,1.9,1.2,3.3c-0.6,1.5-1.9,2.3-3.4,2.4c-1.5,0.1-3,0.1-4.5,0.2c-3.2,0.3-6.3,0.8-9.3,2.1c-0.4,0.2-0.7,0.5-1.1,0.7
			c0,0.1,0,0.1,0.1,0.2c0.2,0,0.4,0.1,0.6,0.1c5.3,0,10.6,0,15.9,0c3.7,0,6.7-2.3,7.5-5.7c0.2-0.9,0.6-1.2,1.5-1.3
			c3.6-0.7,7.2-1.5,10.8-2.2c1.1-0.2,2.2-0.4,3.3-0.2c1.6,0.3,2.2,1.5,1.6,2.9c-0.4,0.8-1,1.5-1.8,2c-2.6,1.7-5.2,3.4-7.8,5
			c-4.5,2.8-9.2,5.3-14.2,7.2c-2.6,1-5.2,1.7-8,2c-2.8,0.3-5.6,0.1-8.3-0.5c-2.7-0.6-5.4-1.3-8.2-2c-1.2-0.3-2.3-0.5-3.5-0.5
			c-0.9,0-1.9,0.1-2.8,0.3c-0.4,0.1-0.6,0-0.9-0.3c-2.9-4-5.1-8.3-6.4-13.1C63.2,106,63,105,62.7,103.9z"/>
		<path id="XMLID_26_" class="st0" d="M50.1,103.9c1.6,0,3.2,0,4.9,0c0.3,0,0.5,0.1,0.6,0.4c1.9,7.8,5.9,14.4,11.9,19.8
			c0.2,0.2,0.4,0.5,0.4,0.7c-0.1,0.2-0.4,0.4-0.7,0.5c-2.9,0.7-6,1-9,0.8c-0.6,0-1.2-0.3-1.7-0.7c-6.2-5-10.6-11.4-12.9-19.1
			c-0.4-1.3,0.4-2.4,1.8-2.4C46.9,103.9,48.5,103.9,50.1,103.9z"/>
	</g>
</g>
<g id="XMLID_33_">
	<path id="XMLID_3_" d="M-396.1,371.7c-36.2,0-65.5,29.3-65.5,65.5c0,36.2,29.3,65.5,65.5,65.5c36.2,0,65.5-29.3,65.5-65.5
		S-360,371.7-396.1,371.7z"/>
	<g id="XMLID_34_">
		<path id="XMLID_53_" class="st0" d="M-377.3,473.6c-4.9-0.2-9.2-2-13.5-3.8c-18.4-7.9-31.4-21.1-38.8-39.8
			c-1.4-3.5-2.8-7-2.8-10.8c-0.1-6.1,1.9-11.5,6.3-15.7c2.5-2.4,5.9-2.8,9.2-2.7c0.7,0,1.7,0.9,2.1,1.6c1.7,2.7,3.2,5.5,4.8,8.2
			c1,1.8,2.1,3.6,3.2,5.4c1.1,1.9,1,3-0.5,4.5c-1.4,1.4-3,2.7-4.6,4c-4.1,3.4-4.1,3.9-1.5,8.6c5.3,9.6,12.9,16.8,22.5,22
			c3,1.6,3.8,1.6,6.1-1c1.6-1.8,3.2-3.7,4.9-5.5c1.9-1.9,2.8-2,5.1-0.7c4.3,2.5,8.6,5,13,7.5c1.8,1,2.2,2.3,2,4.2
			c-0.5,7.1-5.1,10.5-11.2,12.5C-373.1,472.8-375.2,473.2-377.3,473.6z"/>
	</g>
</g>
</svg>
