<?xml version="1.0"?>
<svg xmlns="http://www.w3.org/2000/svg" xmlns:xlink="http://www.w3.org/1999/xlink" version="1.1" viewBox="0 0 224 224" width="24px" height="24px"><g fill="none" fill-rule="nonzero" stroke="none" stroke-width="1" stroke-linecap="butt" stroke-linejoin="miter" stroke-miterlimit="10" stroke-dasharray="" stroke-dashoffset="0" font-family="none" font-weight="none" font-size="none" text-anchor="none" style="mix-blend-mode: normal"><path d="M0,224v-224h224v224z" fill="none"/><g fill="#ffffff8a"><path d="M74.66667,28c-25.76933,0 -46.66667,20.89733 -46.66667,46.66667v74.66667c0,25.76933 20.89733,46.66667 46.66667,46.66667h74.66667c25.76933,0 46.66667,-20.89733 46.66667,-46.66667v-74.66667c0,-25.76933 -20.89733,-46.66667 -46.66667,-46.66667zM168,46.66667c5.152,0 9.33333,4.18133 9.33333,9.33333c0,5.152 -4.18133,9.33333 -9.33333,9.33333c-5.152,0 -9.33333,-4.18133 -9.33333,-9.33333c0,-5.152 4.18133,-9.33333 9.33333,-9.33333zM112,65.33333c25.76933,0 46.66667,20.89733 46.66667,46.66667c0,25.76933 -20.89733,46.66667 -46.66667,46.66667c-25.76933,0 -46.66667,-20.89733 -46.66667,-46.66667c0,-25.76933 20.89733,-46.66667 46.66667,-46.66667zM112,84c-15.46397,0 -28,12.53603 -28,28c0,15.46397 12.53603,28 28,28c15.46397,0 28,-12.53603 28,-28c0,-15.46397 -12.53603,-28 -28,-28z"/></g></g></svg>
