<!DOCTYPE svg PUBLIC "-//W3C//DTD SVG 20010904//EN" "http://www.w3.org/TR/2001/REC-SVG-20010904/DTD/svg10.dtd">
<svg version="1.0" xmlns="http://www.w3.org/2000/svg" width="360px" height="360px" viewBox="0 0 3600 3600" preserveAspectRatio="xMidYMid meet">
<g id="layer101" fill="rgba(255, 255, 255, 0.54)" stroke="none">
 <path d="M657 3584 c-269 -41 -491 -217 -594 -470 -62 -153 -63 -164 -63 -1314 0 -1150 1 -1161 63 -1314 105 -257 325 -429 603 -471 147 -22 2121 -22 2268 0 345 52 599 306 651 651 22 147 22 2121 0 2268 -52 345 -306 599 -651 651 -140 21 -2141 20 -2277 -1z"/>
 </g>
<g id="layer102" fill="#000" stroke="none">
 <path d="M1410 2713 c-67 -24 -161 -122 -183 -192 -22 -68 -22 -154 0 -217 24 -71 120 -165 193 -189 86 -29 176 -25 250 12 l60 30 0 -24 c0 -22 3 -23 80 -23 l80 0 0 305 0 305 -80 0 c-78 0 -80 -1 -80 -24 l0 -25 -56 30 c-49 25 -66 29 -138 28 -46 0 -100 -7 -126 -16z m243 -149 c100 -66 100 -232 0 -298 -95 -62 -219 -32 -270 67 -20 40 -20 124 0 162 51 99 176 131 270 69z"/>
 <path d="M2610 2715 c-80 -26 -160 -113 -160 -175 0 -18 6 -20 75 -20 72 0 75 1 89 29 20 38 67 56 147 56 71 0 109 -19 109 -55 0 -29 -21 -38 -153 -70 -195 -46 -246 -80 -255 -169 -6 -64 2 -92 34 -131 55 -65 177 -98 300 -81 122 18 206 84 221 174 l6 37 -79 0 c-78 0 -79 -1 -92 -29 -22 -50 -121 -76 -189 -50 -31 11 -43 26 -43 51 0 25 24 35 161 64 142 30 187 50 226 100 22 30 27 46 27 91 -1 71 -39 126 -109 162 -43 23 -64 26 -160 28 -74 2 -125 -2 -155 -12z"/>
 <path d="M562 2308 l3 -413 290 0 290 0 3 73 3 72 -211 0 -210 0 0 100 0 100 205 0 206 0 -3 68 -3 67 -202 3 -203 2 0 100 0 100 210 0 210 0 0 70 0 70 -295 0 -295 0 2 -412z"/>
 <path d="M2150 2702 c-19 -9 -45 -32 -57 -51 -22 -32 -23 -43 -23 -217 l0 -184 -60 0 -60 0 0 -70 0 -70 60 0 60 0 0 -85 0 -85 80 0 80 0 0 85 0 85 85 0 85 0 0 70 0 70 -85 0 -85 0 0 155 c0 180 -3 175 104 175 l66 0 0 70 0 70 -107 0 c-83 0 -116 -4 -143 -18z"/>
 <path d="M753 1679 c-57 -22 -125 -83 -153 -139 -32 -62 -40 -146 -40 -412 l0 -258 65 0 65 0 0 258 c1 269 7 326 43 380 26 38 107 82 151 82 83 0 155 -44 187 -115 17 -36 19 -70 19 -322 l0 -283 65 0 65 0 0 410 0 410 -59 0 -60 0 -3 -35 -3 -34 -44 29 c-24 17 -60 34 -80 40 -58 16 -160 11 -218 -11z"/>
 <path d="M1565 1688 c-16 -6 -49 -23 -72 -39 l-43 -28 0 34 0 35 -60 0 -60 0 0 -410 0 -410 60 0 60 0 0 146 0 145 35 -27 c51 -39 101 -53 186 -54 65 0 84 4 137 30 107 54 163 139 170 260 3 60 0 86 -18 133 -29 77 -100 148 -175 176 -61 23 -168 27 -220 9z m190 -121 c55 -31 97 -94 103 -155 20 -213 -249 -309 -373 -134 -26 38 -30 52 -30 112 0 60 4 74 30 112 43 61 95 88 170 88 44 0 71 -6 100 -23z"/>
 <path d="M2231 1678 c-195 -75 -254 -339 -112 -500 58 -65 119 -92 219 -96 77 -4 88 -2 148 28 104 51 164 151 164 272 l0 48 -245 0 -245 0 15 38 c57 135 225 169 336 66 l25 -24 42 31 c48 35 46 48 -14 94 -88 67 -225 85 -333 43z m280 -387 c-67 -129 -228 -145 -311 -29 -50 69 -52 68 150 68 l180 0 -19 -39z"/>
 <path d="M2730 1390 l0 -300 60 0 60 0 0 31 0 31 30 -26 c33 -27 98 -49 133 -44 20 3 22 9 22 58 l0 55 -50 5 c-118 13 -129 38 -133 293 l-4 197 -59 0 -59 0 0 -300z"/>
 </g>
<g id="layer103" fill="#000" stroke="none">
 <path d="M753 1679 c-57 -22 -125 -83 -153 -139 -32 -62 -40 -146 -40 -412 l0 -258 65 0 65 0 0 258 c1 269 7 326 43 380 26 38 107 82 151 82 83 0 155 -44 187 -115 17 -36 19 -70 19 -322 l0 -283 65 0 65 0 0 410 0 410 -59 0 -60 0 -3 -35 -3 -34 -44 29 c-24 17 -60 34 -80 40 -58 16 -160 11 -218 -11z"/>
 <path d="M1565 1688 c-16 -6 -49 -23 -72 -39 l-43 -28 0 34 0 35 -60 0 -60 0 0 -410 0 -410 60 0 60 0 0 146 0 145 35 -27 c51 -39 101 -53 186 -54 65 0 84 4 137 30 107 54 163 139 170 260 3 60 0 86 -18 133 -29 77 -100 148 -175 176 -61 23 -168 27 -220 9z m190 -121 c55 -31 97 -94 103 -155 20 -213 -249 -309 -373 -134 -26 38 -30 52 -30 112 0 60 4 74 30 112 43 61 95 88 170 88 44 0 71 -6 100 -23z"/>
 <path d="M2231 1678 c-195 -75 -254 -339 -112 -500 58 -65 119 -92 219 -96 77 -4 88 -2 148 28 104 51 164 151 164 272 l0 48 -245 0 -245 0 15 38 c57 135 225 169 336 66 l25 -24 42 31 c48 35 46 48 -14 94 -88 67 -225 85 -333 43z m280 -387 c-67 -129 -228 -145 -311 -29 -50 69 -52 68 150 68 l180 0 -19 -39z"/>
 <path d="M2730 1390 l0 -300 60 0 60 0 0 31 0 31 30 -26 c33 -27 98 -49 133 -44 20 3 22 9 22 58 l0 55 -50 5 c-118 13 -129 38 -133 293 l-4 197 -59 0 -59 0 0 -300z"/>
 </g>

</svg>
