<!DOCTYPE svg PUBLIC "-//W3C//DTD SVG 20010904//EN" "http://www.w3.org/TR/2001/REC-SVG-20010904/DTD/svg10.dtd">
<svg version="1.0" xmlns="http://www.w3.org/2000/svg" width="374px" height="338px" viewBox="0 0 3740 3380" preserveAspectRatio="xMidYMid meet">
<g id="layer101" fill="transparent" stroke="none">
 <path d="M0 1690 l0 -1690 834 0 834 0 7 33 c4 17 19 48 34 67 l26 35 3 288 3 287 139 0 140 0 0 -290 0 -290 24 -38 c14 -20 28 -49 31 -64 l7 -28 829 0 829 0 0 1690 0 1690 -1870 0 -1870 0 0 -1690z m2182 1634 c61 -20 123 -75 156 -138 l27 -51 3 -708 3 -708 -38 20 c-66 33 -144 51 -226 51 l-79 0 47 -47 c44 -44 85 -99 85 -114 0 -4 -22 -9 -48 -13 -104 -14 -189 -80 -219 -171 l-10 -30 -89 0 c-58 1 -107 7 -141 18 -107 37 -205 133 -250 247 -17 41 -18 101 -21 731 -3 684 -3 687 19 745 27 72 97 145 160 167 65 23 555 24 621 1z m-1437 -415 c59 -16 167 -92 230 -161 30 -34 55 -66 55 -72 0 -15 -112 -126 -128 -126 -7 0 -48 35 -91 78 -55 55 -88 98 -114 151 -39 77 -45 109 -25 129 15 15 22 15 73 1z m2339 -11 c27 -44 -65 -203 -176 -302 l-63 -56 -67 67 -67 66 40 48 c121 144 295 237 333 177z m-1811 -400 c-56 -42 -180 -174 -222 -237 -58 -84 -117 -212 -143 -308 -18 -64 -21 -107 -22 -248 -1 -148 2 -181 22 -255 28 -102 84 -224 142 -311 61 -90 201 -226 291 -282 77 -48 215 -109 277 -122 l32 -7 0 -99 0 -99 -27 6 c-578 137 -968 645 -940 1223 9 184 42 314 124 479 96 197 263 380 441 484 l47 27 3 -115 3 -116 -28 -20z m1332 153 c399 -305 562 -838 405 -1321 -125 -383 -462 -694 -852 -785 l-58 -13 0 96 0 97 100 34 c329 111 581 397 652 739 26 127 21 336 -11 456 -28 104 -99 252 -162 337 -49 66 -203 219 -221 219 -4 0 -8 54 -8 121 l0 121 48 -28 c26 -15 74 -48 107 -73z m-1286 -976 c54 -167 206 -304 370 -335 30 -6 216 -10 418 -10 l365 0 -7 -42 c-23 -135 -100 -277 -194 -357 -127 -107 -261 -147 -460 -138 -104 4 -143 10 -222 36 -275 89 -498 313 -587 591 -60 186 -57 398 8 584 45 131 151 293 243 371 l42 36 6 -348 c4 -244 9 -360 18 -388z m1254 619 c143 -168 217 -370 217 -589 0 -236 -74 -436 -221 -601 -51 -57 -138 -138 -143 -133 -3 2 11 29 30 59 46 73 84 196 91 295 7 100 -13 187 -62 267 l-35 56 0 382 0 383 33 -25 c17 -14 58 -56 90 -94z m-2025 -490 l52 -7 0 -92 0 -92 -82 -7 c-141 -11 -307 31 -342 86 -14 23 12 50 74 77 80 35 190 47 298 35z m2913 -20 c32 -9 72 -29 91 -44 42 -36 34 -54 -48 -95 -56 -29 -66 -30 -206 -33 l-148 -4 0 96 0 95 53 4 c82 7 196 -2 258 -19z m-1132 -142 c66 -49 114 -120 129 -189 l10 -43 -124 0 c-68 0 -124 2 -124 4 0 2 7 23 15 46 19 53 19 143 0 195 -8 22 -15 41 -15 43 0 8 79 -33 109 -56z m-174 -167 c-10 -19 -22 -32 -27 -29 -13 8 -3 57 19 91 l18 27 3 -26 c2 -15 -4 -43 -13 -63z m-112 -17 l7 -48 -40 0 c-50 0 -52 16 -9 65 18 20 33 34 34 33 1 -2 5 -24 8 -50z m-1056 -781 c-110 -127 -278 -218 -317 -172 -35 43 51 199 169 305 l66 60 67 -67 67 -66 -52 -60z m1952 106 c84 -85 124 -146 143 -216 23 -86 -26 -97 -147 -34 -60 32 -215 175 -215 199 0 17 111 128 129 128 8 0 48 -35 90 -77z"/>
 <path d="M2064 1291 c-46 -28 -64 -59 -64 -111 0 -56 26 -101 73 -123 41 -20 65 -21 104 -6 42 16 72 48 84 91 14 52 -2 98 -47 138 -42 36 -101 41 -150 11z m112 -86 c13 -21 15 -31 6 -50 -25 -55 -102 -35 -102 26 0 51 68 67 96 24z"/>
 <path d="M2117 1197 c-22 -16 -13 -47 14 -47 25 0 36 28 17 46 -11 12 -17 12 -31 1z"/>
 </g>
<g id="layer102" fill="#ffffff" stroke="none">
 <path d="M1561 3323 c-63 -22 -133 -95 -160 -167 -22 -58 -22 -61 -19 -745 3 -630 4 -690 21 -731 45 -114 143 -210 250 -247 34 -11 83 -17 141 -18 l89 0 10 30 c30 91 115 157 219 171 26 4 48 9 48 13 0 15 -41 70 -85 114 l-47 47 79 0 c82 0 160 -18 226 -51 l38 -20 -3 708 -3 708 -27 51 c-33 63 -95 118 -156 138 -66 23 -556 22 -621 -1z"/>
 <path d="M672 2908 c-20 -20 -14 -52 25 -129 26 -53 59 -96 114 -151 43 -43 84 -78 91 -78 16 0 128 111 128 126 0 22 -113 135 -178 177 -58 39 -124 67 -157 67 -6 0 -16 -5 -23 -12z"/>
 <path d="M2995 2908 c-73 -27 -176 -106 -244 -187 l-40 -48 67 -66 67 -67 63 56 c111 99 203 258 176 302 -13 21 -48 25 -89 10z"/>
 <path d="M1248 2722 c-223 -131 -423 -382 -508 -640 -109 -331 -64 -711 118 -1001 177 -280 439 -468 765 -545 l27 -6 0 99 0 99 -32 7 c-62 13 -200 74 -277 122 -90 56 -230 192 -291 282 -58 87 -114 209 -142 311 -20 74 -23 107 -22 255 1 141 4 184 22 248 26 96 85 224 143 308 42 63 166 195 222 237 l28 20 -3 116 -3 115 -47 -27z"/>
 <path d="M2450 2631 c0 -67 4 -121 8 -121 18 0 172 -153 221 -219 63 -85 134 -233 162 -337 32 -120 37 -329 11 -456 -71 -342 -323 -628 -652 -739 l-100 -34 0 -97 0 -96 58 13 c139 33 251 82 381 169 447 298 638 855 470 1369 -85 259 -284 509 -511 641 l-48 28 0 -121z"/>
 <path d="M1253 2375 c-92 -78 -198 -240 -243 -371 -49 -139 -64 -321 -39 -460 59 -333 300 -612 618 -715 126 -41 305 -51 425 -24 236 52 410 239 451 483 l7 42 -365 0 c-202 0 -388 4 -418 10 -164 31 -316 168 -370 335 -9 28 -14 144 -18 388 l-6 348 -42 -36z m961 -1095 c82 -73 63 -191 -37 -229 -39 -15 -63 -14 -104 6 -47 22 -73 67 -73 123 0 52 18 83 64 111 49 30 108 25 150 -11z"/>
 <path d="M2098 1219 c-24 -14 -23 -61 2 -84 45 -41 110 18 76 70 -17 26 -48 32 -78 14z m59 -53 c-8 -21 -43 -20 -51 1 -10 26 23 48 42 29 8 -8 12 -22 9 -30z"/>
 <path d="M2450 2030 l0 -382 35 -56 c49 -80 69 -167 62 -267 -7 -99 -45 -222 -91 -295 -19 -30 -33 -57 -30 -59 9 -9 151 136 206 210 34 46 92 160 113 224 65 194 59 444 -14 625 -57 140 -164 293 -248 358 l-33 25 0 -383z"/>
 <path d="M352 1799 c-109 -18 -197 -72 -176 -107 35 -55 201 -97 342 -86 l82 7 0 92 0 92 -52 7 c-67 8 -129 6 -196 -5z"/>
 <path d="M3203 1803 l-53 -4 0 -95 0 -96 148 4 c140 3 150 4 206 33 82 41 90 59 48 95 -58 49 -204 75 -349 63z"/>
 <path d="M2220 1698 c0 -2 7 -21 15 -43 19 -52 19 -142 0 -195 -8 -23 -15 -44 -15 -46 0 -2 56 -4 124 -4 l124 0 -10 43 c-21 95 -105 192 -201 232 -20 8 -37 14 -37 13z"/>
 <path d="M2147 1537 c-22 -34 -32 -83 -19 -91 14 -8 44 59 40 92 l-3 26 -18 -27z"/>
 <path d="M2001 1475 c-43 -49 -41 -65 9 -65 l40 0 -7 48 c-3 26 -7 48 -8 50 -1 1 -16 -13 -34 -33z"/>
 <path d="M839 810 c-118 -106 -204 -262 -169 -305 39 -46 207 45 317 172 l52 60 -67 66 -67 67 -66 -60z"/>
 <path d="M2777 802 c-31 -32 -57 -63 -57 -70 0 -6 35 -47 78 -89 111 -113 248 -179 282 -138 18 21 2 87 -38 154 -31 54 -173 201 -193 201 -8 0 -40 -26 -72 -58z"/>
 <path d="M1738 423 l-3 -288 -26 -35 c-15 -19 -30 -50 -34 -68 l-7 -32 207 0 207 0 -7 28 c-3 15 -17 44 -31 64 l-24 38 0 290 0 290 -140 0 -139 0 -3 -287z"/>
 <path d="M0 160 c0 -7 3 -10 7 -7 3 4 3 10 0 14 -4 3 -7 0 -7 -7z"/>
 </g>

</svg>
